# xmcd
#
# Track frame offsets: 
#        150
#        20515
#        41341
#        57461
#        79199
#        100033
#        120614
#        142200
#        163643
#        187751
#        207914
#        230531
#        249445
#        274017
#        295760
#        314415
#        335008
#
# Disc length: 4739 seconds
#
# Revision: 0
# Processed by: cddbd v1.5.2PL0 Copyright (c) Steve Scherf et al.
# Submitted via: ExactAudioCopy v1.0b3
#
DISCID=f2128111
DTITLE=Various Artist - 50 Techno Trance Anthems Vol. 2 - CD 2
DYEAR=1900
DGENRE=
TTITLE0=Rikah - Out Of Time (DJ Cobra Club Rmx)
TTITLE1=Kyau Vs. Albert - Always A Fool (Club Mix)
TTITLE2=Planet Trax - Shine (Jay Frog Mix)
TTITLE3=Tunnel Alliance - Sandstorm Part 2 (Reloaded Electro Mix)
TTITLE4=Defcon 5 - Sonic Revolution (Knights Of The Empire)
TTITLE5=D&J Pres. Glamour - After The Love Is Gone (Ibiza´s All Fedde 
TTITLE5=Up Mix)
TTITLE6=De Lorean - Rapture (Twister Trance Dub)
TTITLE7=Overdub Feat. Sophia - Sweet Dreams (Doug Laurent Bonzai Mix P
TTITLE7=art 1)
TTITLE8=Peyote - I Will Fight No More Forever (Doug Laurent Bootleg Mi
TTITLE8=x)
TTITLE9=Groovemagnet - Sunrize (Xtd Mix)
TTITLE10=Sean Dexter - Two Get Overexcited (Sean Dexter Rmx)
TTITLE11=Tomcraft - Mind (Xtd)
TTITLE12=Hypnotic Grooves Feat. Jo Van Nelsen - Erdbeermund (Doug Laur
TTITLE12=ent Mix)
TTITLE13=Leila - Salam Alekoum (Alex Twister Hard Club Mix)
TTITLE14=Maxxis and Overdose - Knightstorm (Junk Project Rmx)
TTITLE15=Eric Lidstroem - Fallen Star (Original)
TTITLE16=Ultra - Lost In Time And Space (Xtd Mix)
EXTD=
EXTT0=
EXTT1=
EXTT2=
EXTT3=
EXTT4=
EXTT5=
EXTT6=
EXTT7=
EXTT8=
EXTT9=
EXTT10=
EXTT11=
EXTT12=
EXTT13=
EXTT14=
EXTT15=
EXTT16=
PLAYORDER=
